<?xml version="1.0" encoding="utf-8"?>
<!-- Generator: Adobe Illustrator 19.1.0, SVG Export Plug-In . SVG Version: 6.00 Build 0)  -->
<svg id="graphic" version="1.1" xmlns="http://www.w3.org/2000/svg" xmlns:xlink="http://www.w3.org/1999/xlink" x="0px" y="0px"
	 viewBox="0 0 800 1000" style="enable-background:new 0 0 800 1000;" xml:space="preserve">
  <script type="text/javascript" xlink:href="http://cdnjs.cloudflare.com/ajax/libs/svg.js/2.2.5/svg.min.js"></script>
  <script type="text/javascript">
    <![CDATA[
      var draw = SVG('graphic')
      draw.group().select('#SAtext').hide();
    ]]>
  </script>
<style type="text/css">
	.st0{fill:url(#SVGID_1_);}
	.st1{fill:none;}
	.st2{fill:#989898;}
	.st3{fill:#BF2526;}
	.st4{fill:#808080;}
	.st5{fill:#7B7B7B;}
	.st6{fill:#1C84BB;}
	.st7{fill:#D38529;}
	.st8{fill:#FFFFFF;stroke:#FFFFFF;stroke-miterlimit:10;}
	.st9{fill:#DBDCDD;}
	.st10{opacity:0.37;}
	.st11{fill:#3A3B3B;}
	.st12{fill:none;stroke:#6E6D6E;stroke-width:0.5;stroke-miterlimit:10;}
	.st13{fill:#EAADAC;}
	.st14{opacity:0.39;fill:#293378;}
	.st15{font-family:'MongolianBaiti';}
	.st16{font-size:12px;}
	.st17{fill:url(#SVGID_2_);}
	.st18{fill:#010101;}
	.st19{font-size:21px;}
	.st20{fill:#ABABAB;}
	.st21{font-size:21px;glyph-orientation-vertical:0;writing-mode:tb;}
	.st22{fill:none;stroke:#B2B2B2;stroke-width:1.5;stroke-miterlimit:10;}
	.st23{fill:#0E0E0E;}
	/*.st24{display:none;}*/
	.st25{display:inline;opacity:0.59;fill:#FFFFFF;}
	.st26{display:inline;fill:none;}
	.st27{display:inline;}
	.st28{font-family:'Georgia';}
	.st29{font-size:18px;}
	.st30{letter-spacing:31;}
	.st31{opacity:0.59;fill:#FFFFFF;}
	.st32{fill:url(#SVGID_3_);}
	.st33{fill:#606161;}
	.st34{fill:none;stroke:#383838;stroke-width:0.5;stroke-miterlimit:10;}

</style>
<g id="Layer_1">
	<linearGradient id="SVGID_1_" gradientUnits="userSpaceOnUse" x1="170.4602" y1="451.9787" x2="170.4602" y2="390.0223">
		<stop  offset="0" style="stop-color:#9AC6EA"/>
		<stop  offset="0.1058" style="stop-color:#94C6EB"/>
		<stop  offset="0.2363" style="stop-color:#83C4EC"/>
		<stop  offset="0.3792" style="stop-color:#61C2EF"/>
		<stop  offset="0.5099" style="stop-color:#14C1F2"/>
		<stop  offset="0.5545" style="stop-color:#45C0EF"/>
		<stop  offset="0.6658" style="stop-color:#74C1EA"/>
		<stop  offset="0.7776" style="stop-color:#8DC2E7"/>
		<stop  offset="0.889" style="stop-color:#9AC2E5"/>
		<stop  offset="1" style="stop-color:#9FC2E4"/>
	</linearGradient>
	<rect x="1.8" y="386.4" class="st0" width="337.2" height="73.9"/>
	<polygon class="st1" points="294.6,546.9 -5,546.9 -5.5,536.2 90.6,536.1 109.7,536.1 294.6,535.9 	"/>
	<g>
		<polygon class="st2" points="35,366.4 34.1,360.3 34.7,360.3 35.6,366.3 		"/>
		<polygon class="st2" points="38.3,366.5 37.7,366.4 38.6,360.4 39.2,360.4 		"/>
		<rect x="36.3" y="360.3" class="st2" width="0.6" height="6.1"/>
		<path class="st2" d="M36.6,341.8c-3.2,0-5.7,3.1-5.7,6.9c0,0.5,0,1,0.1,1.4l0,0.1l0,0.2c0.1,0.5,0.2,1.1,0.4,1.6l2.4,7.9h5.5
			l2.9-9.5l0,0c0.1-0.5,0.1-1.2,0.1-1.7C42.4,344.9,39.8,341.8,36.6,341.8z"/>
		<path class="st3" d="M37.9,366.9h-2.8c-0.5,0-0.9,0.6-0.9,1.4v1.7c0,0.8,0.4,1.4,0.9,1.4h2.8c0.5,0,0.9-0.6,0.9-1.4v-1.7
			C38.9,367.5,38.5,366.9,37.9,366.9z"/>
	</g>
	<g>
		<g>
			<g>
				<path class="st4" d="M115.3,527.2l-1.1-0.3l0.2-0.4c0.2-0.3,0-0.7-0.3-0.9c-0.3-0.2-0.7,0-0.9,0.3l-0.6,1.2
					c-0.1,0.2-0.1,0.4,0,0.6s0.2,0.3,0.4,0.4l0.9,0.3l-1.2,1.6c-0.2,0.3-0.2,0.7,0.1,0.9c0.1,0.1,0.3,0.1,0.4,0.1
					c0.2,0,0.4-0.1,0.5-0.3l1.9-2.4c0.1-0.2,0.2-0.4,0.1-0.6C115.7,527.5,115.6,527.3,115.3,527.2z"/>
			</g>
		</g>
		<g>
			<path class="st4" d="M123.2,518.1c-0.3-2.1-2.3-3.8-4.8-3.8c-0.5,0-1,0.1-1.5,0.2c-0.9-1.1-2.4-1.8-3.9-1.8
				c-2.6,0-4.8,1.9-4.8,4.2c0,0.1,0,0.2,0,0.4c-1.4,0.8-2.3,2.1-2.3,3.6c0,2.3,2.2,4.2,4.9,4.2c0.9,0,1.7-0.2,2.5-0.6
				c0.8,0.4,1.6,0.6,2.5,0.6c0.7,0,1.4-0.1,2-0.4c0.6,0.2,1.3,0.4,2,0.4c2.7,0,4.9-1.9,4.9-4.2C124.5,519.9,124,518.9,123.2,518.1z"
				/>
			<g>
				<path class="st4" d="M120.6,526.3c-0.4-0.2-0.8,0-1,0.3l-0.6,1.1c-0.2,0.4,0,0.8,0.3,1c0.1,0.1,0.2,0.1,0.3,0.1
					c0.3,0,0.5-0.1,0.6-0.4l0.6-1.1C121,526.9,120.9,526.5,120.6,526.3z"/>
				<path class="st4" d="M122.2,528.6c-0.4-0.1-0.8,0-1,0.4l-0.5,1.1c-0.1,0.4,0,0.8,0.4,1c0.1,0,0.2,0.1,0.3,0.1
					c0.3,0,0.6-0.1,0.7-0.4l0.5-1.1C122.7,529.2,122.6,528.8,122.2,528.6z"/>
			</g>
			<g>
				<path class="st4" d="M110.7,530c-0.4-0.2-0.8,0-1,0.3l-0.6,1.1c-0.2,0.4,0,0.8,0.3,1c0.1,0.1,0.2,0.1,0.3,0.1
					c0.3,0,0.5-0.1,0.6-0.4l0.6-1.1C111.2,530.6,111.1,530.2,110.7,530z"/>
				<path class="st4" d="M110.6,526.2c-0.4-0.2-0.8,0-1,0.3l-0.6,1.1c-0.2,0.4,0,0.8,0.3,1c0.1,0.1,0.2,0.1,0.3,0.1
					c0.3,0,0.5-0.1,0.6-0.4l0.6-1.1C111,526.8,110.9,526.4,110.6,526.2z"/>
				<path class="st4" d="M107.9,528.5c-0.4-0.1-0.8,0-1,0.4l-0.5,1.1c-0.1,0.4,0,0.8,0.4,1c0.1,0,0.2,0.1,0.3,0.1
					c0.3,0,0.6-0.1,0.7-0.4l0.5-1.1C108.5,529.1,108.3,528.7,107.9,528.5z"/>
			</g>
		</g>
		<path class="st4" d="M107.4,525.2c-0.4-0.2-0.8,0-1,0.3l-0.6,1.1c-0.2,0.4,0,0.8,0.3,1c0.1,0.1,0.2,0.1,0.3,0.1
			c0.3,0,0.5-0.1,0.6-0.4l0.6-1.1C107.9,525.8,107.8,525.4,107.4,525.2z"/>
		<g>
			<g>
				<path class="st4" d="M118.4,530.4l-1.1-0.3l0.2-0.4c0.2-0.3,0-0.7-0.3-0.9s-0.7,0-0.9,0.3l-0.6,1.2c-0.1,0.2-0.1,0.4,0,0.6
					c0.1,0.2,0.2,0.3,0.4,0.4l0.9,0.3l-1.2,1.6c-0.2,0.3-0.2,0.7,0.1,0.9c0.1,0.1,0.3,0.1,0.4,0.1c0.2,0,0.4-0.1,0.5-0.3l1.9-2.4
					c0.1-0.2,0.2-0.4,0.1-0.6C118.8,530.7,118.7,530.5,118.4,530.4z"/>
			</g>
		</g>
	</g>
	<g>
		<g>
			<g>
				<path class="st4" d="M134.6,529.2l-0.9-0.2l0.2-0.4c0.2-0.3,0-0.6-0.2-0.8c-0.3-0.2-0.6,0-0.8,0.2l-0.5,1
					c-0.1,0.2-0.1,0.3,0,0.5c0.1,0.2,0.2,0.3,0.4,0.3l0.8,0.2l-1,1.4c-0.2,0.2-0.2,0.6,0.1,0.8c0.1,0.1,0.2,0.1,0.3,0.1
					c0.2,0,0.3-0.1,0.5-0.2l1.5-2c0.1-0.2,0.2-0.3,0.1-0.5C134.9,529.4,134.8,529.2,134.6,529.2z"/>
			</g>
		</g>
		<g>
			<path class="st4" d="M141.2,521.5c-0.2-1.8-1.9-3.1-4-3.1c-0.4,0-0.9,0.1-1.3,0.2c-0.8-0.9-2-1.5-3.3-1.5c-2.2,0-4,1.6-4,3.5
				c0,0.1,0,0.2,0,0.3c-1.2,0.6-1.9,1.8-1.9,3c0,1.9,1.8,3.5,4.1,3.5c0.7,0,1.4-0.2,2.1-0.5c0.6,0.3,1.3,0.5,2.1,0.5
				c0.6,0,1.2-0.1,1.7-0.3c0.5,0.2,1.1,0.3,1.7,0.3c2.2,0,4.1-1.6,4.1-3.5C142.2,523,141.9,522.2,141.2,521.5z"/>
			<g>
				<path class="st4" d="M139,528.4c-0.3-0.2-0.6,0-0.8,0.2l-0.5,1c-0.2,0.3,0,0.6,0.2,0.8c0.1,0.1,0.2,0.1,0.3,0.1
					c0.2,0,0.4-0.1,0.5-0.3l0.5-1C139.4,528.9,139.2,528.6,139,528.4z"/>
				<path class="st4" d="M140.3,530.3c-0.3-0.1-0.6,0-0.8,0.3l-0.4,1c-0.1,0.3,0,0.6,0.3,0.8c0.1,0,0.2,0.1,0.2,0.1
					c0.2,0,0.5-0.1,0.6-0.4l0.4-1C140.8,530.8,140.6,530.5,140.3,530.3z"/>
			</g>
			<g>
				<path class="st4" d="M130.7,531.4c-0.3-0.2-0.6,0-0.8,0.2l-0.5,1c-0.2,0.3,0,0.6,0.2,0.8c0.1,0.1,0.2,0.1,0.3,0.1
					c0.2,0,0.4-0.1,0.5-0.3l0.5-0.9C131.1,532,131,531.6,130.7,531.4z"/>
				<path class="st4" d="M130.6,528.3c-0.3-0.2-0.6,0-0.8,0.2l-0.5,1c-0.2,0.3,0,0.6,0.2,0.8c0.1,0.1,0.2,0.1,0.3,0.1
					c0.2,0,0.4-0.1,0.5-0.3l0.5-1C131,528.8,130.9,528.5,130.6,528.3z"/>
				<path class="st4" d="M128.4,530.2c-0.3-0.1-0.6,0-0.8,0.3l-0.4,1c-0.1,0.3,0,0.6,0.3,0.8c0.1,0,0.2,0.1,0.2,0.1
					c0.2,0,0.5-0.1,0.6-0.4l0.4-1C128.9,530.7,128.7,530.4,128.4,530.2z"/>
			</g>
		</g>
		<path class="st4" d="M128,527.5c-0.3-0.2-0.6,0-0.8,0.2l-0.5,1c-0.2,0.3,0,0.6,0.2,0.8c0.1,0.1,0.2,0.1,0.3,0.1
			c0.2,0,0.4-0.1,0.5-0.3l0.5-0.9C128.4,528,128.3,527.7,128,527.5z"/>
		<g>
			<g>
				<path class="st4" d="M137.2,531.8l-0.9-0.2l0.2-0.4c0.2-0.3,0-0.6-0.2-0.8c-0.3-0.2-0.6,0-0.8,0.2l-0.5,1
					c-0.1,0.2-0.1,0.3,0,0.5c0.1,0.2,0.2,0.3,0.4,0.3l0.8,0.2l-1,1.4c-0.2,0.2-0.2,0.6,0.1,0.8c0.1,0.1,0.2,0.1,0.3,0.1
					c0.2,0,0.3-0.1,0.5-0.2l1.5-2c0.1-0.2,0.2-0.3,0.1-0.5C137.5,532.1,137.4,531.9,137.2,531.8z"/>
			</g>
		</g>
	</g>
	<g>
		<polygon class="st5" points="193.2,83.8 194.4,82.7 193.2,81.6 190.9,83.9 192.1,85 		"/>
		<polygon class="st5" points="188.8,88.2 191.1,85.9 190,84.8 187.7,87.1 188.3,87.7 		"/>
		<polygon class="st5" points="187.9,89.2 187.3,88.6 186.7,88.1 184.5,90.3 185.6,91.4 		"/>
		
			<rect x="190.7" y="87" transform="matrix(-0.7071 -0.7071 0.7071 -0.7071 264.2599 286.6995)" class="st5" width="1.6" height="3.2"/>
		<polygon class="st5" points="193,85.9 194.2,87.1 195.3,85.9 196.4,84.8 195.3,83.7 194.2,84.8 		"/>
		<polygon class="st5" points="188.8,90.1 188.8,90.1 186.6,92.4 187.7,93.5 190,91.3 		"/>
		<polygon class="st5" points="195.3,90.1 194.7,89.5 194.2,89 191.9,91.3 193,92.4 		"/>
		<polygon class="st5" points="195.1,88 195.7,88.6 196.2,89.2 198.5,86.9 197.4,85.7 196.3,86.9 		"/>
		
			<rect x="189.6" y="92.3" transform="matrix(-0.7071 -0.7071 0.7071 -0.7071 258.5675 294.9448)" class="st5" width="1.6" height="3.2"/>
		
			<rect x="171" y="102.5" transform="matrix(-0.7071 -0.7071 0.7071 -0.7071 219.7181 299.2122)" class="st5" width="1.6" height="3.2"/>
		<polygon class="st5" points="171.3,107.7 170.1,108.9 169,110 170.1,111.1 172.4,108.8 		"/>
		<polygon class="st5" points="170.3,106.8 169.2,105.6 166.9,107.9 168,109 169.1,107.9 		"/>
		<polygon class="st5" points="173.3,109.8 173.3,109.8 171.1,112.1 172.2,113.2 174.5,110.9 		"/>
		<polygon class="st5" points="176.6,104.7 178.8,102.4 177.7,101.3 175.4,103.5 176,104.1 		"/>
		<polygon class="st5" points="173.4,101.4 174.5,102.6 174.5,102.6 174.5,102.6 176.8,100.3 175.6,99.2 		"/>
		<polygon class="st5" points="175,105.1 174.5,104.5 172.2,106.8 173.3,107.9 175.6,105.6 175.6,105.6 175.6,105.6 		"/>
		<polygon class="st5" points="176.6,106.6 176.6,106.6 174.3,108.8 175.4,110 177.7,107.7 		"/>
		
			<rect x="178.4" y="103.4" transform="matrix(0.7071 0.7071 -0.7071 0.7071 126.7751 -95.9596)" class="st5" width="1.6" height="3.2"/>
		<polygon class="st5" points="186.7,86.1 186.7,86.1 186.7,86.1 		"/>
		<path class="st5" d="M189.6,99.2l-10.7-10.7l-5.1,5.1l10.7,10.7c0.5-1.2,1.2-2.2,2-3.1S188.4,99.6,189.6,99.2z"/>
		<path class="st5" d="M198.4,102c-2.1-2.1-5.1-2.7-7.8-1.8c-1.2,0.4-2.3,1-3.2,1.9c-0.9,0.9-1.6,2-1.9,3.2
			c-0.9,2.7-0.2,5.7,1.8,7.8l5.1-5.1l1,1c-0.2,0.6-0.1,1.2,0.4,1.7c0.6,0.6,1.6,0.6,2.3,0c0.6-0.6,0.6-1.6,0-2.3
			c-0.5-0.5-1.1-0.6-1.7-0.4l-1-1L198.4,102z"/>
		<path class="st5" d="M173.5,91.9l3.7-3.7c-0.9-0.7-2.1-0.7-3-0.2l-1.5-1.5c-0.3-0.3-0.7-0.3-1,0l0,0c-0.3,0.3-0.3,0.7,0,1l1.5,1.5
			C172.7,89.8,172.8,91,173.5,91.9z"/>
	</g>
	<path class="st6" d="M217,539.6l0.3-1.8l10.3-5.5l5.8,2.4c4.1,1.7,9.2,1.8,13.5,0.2l7.2-2.7l5.6,2.4c4.5,1.9,10.1,1.9,14.6,0
		l5.6-2.4l6,2.4c4.3,1.7,9.5,1.8,13.9,0.1l6.4-2.5l6.1,2.6c4,1.7,8.9,1.8,13,0.3l7.9-2.9l5.8,4.3V548l-123.2,0.1L217,539.6z"/>
	<g>
		<polyline class="st7" points="217.4,540.5 242,545.7 242,548.1 159.3,548 2.6,548.1 2.7,537.1 29.4,536.5 52.2,503.5 74.5,536.8 
			95.5,537.2 120.3,536.9 217.3,537 217.5,541.8 		"/>
	</g>
	<polygon class="st8" points="52.2,503.6 44.5,514.7 47.9,512.6 52,514.7 55.7,513 59.5,514.6 	"/>
	<path class="st9" d="M245.8,465.1c0.1,0,0.2,0,0.3,0l9.2-1l0,0.1l-0.9,10.9l2.5-0.8l1.3-3.5l1.3-3.4l1.7-4.5l0,0l6-2
		c0,0,1.8-0.9,1.6-1.7c-0.2-0.8-1.9-0.8-1.9-0.8l-6.8,1l-3.2-2.8l-2.8-2.5l-2.6-2.3l-2.9,0.4l5.7,8.6l-8.4,2.9
		c-0.2,0-0.4,0.1-0.6,0.2l-2.8-2.6l-1.3,0.3l1.8,2.8l0.1,0.2l0.2,0.7l0.2,0.6l-0.2,3.4l1.2-0.3L245.8,465.1z"/>
	<g class="st10">
		<g>
			<path class="st11" d="M212.4,529.7c3.1-3,4.5-7.2,3.9-11.1l-16.9,14c2.9,1,6.3,0.9,9.3-0.4l-1,4.8h7.1L212.4,529.7z"/>
			<path class="st11" d="M208.2,524.7l-1.7-1.4c0.2-0.4,0.1-0.9-0.2-1.2c-0.4-0.5-1.1-0.5-1.6-0.2c-0.5,0.4-0.5,1.1-0.2,1.6
				c0.3,0.3,0.7,0.5,1.1,0.4l1.1,1.9L208.2,524.7z"/>
		</g>
		<g>
			<path class="st12" d="M189.7,496.9c1.5,1.8-3,5.6-1.5,7.4c1.5,1.8,6.1-2,7.6-0.3c1.5,1.8-3,5.6-1.5,7.4s6.1-2,7.6-0.3
				c1.5,1.8-3,5.6-1.5,7.4"/>
			<path class="st12" d="M183.7,489.8c1.5,1.8-3,5.6-1.5,7.4c1.5,1.8,6.1-2,7.6-0.3c1.5,1.8-3,5.6-1.5,7.4c1.5,1.8,6.1-2,7.6-0.3
				c1.5,1.8-3,5.6-1.5,7.4"/>
			<path class="st12" d="M171.7,475.4c1.5,1.8-3,5.6-1.5,7.4c1.5,1.8,6.1-2,7.6-0.3s-3,5.6-1.5,7.4c1.5,1.8,6.1-2,7.6-0.3
				s-3,5.6-1.5,7.4"/>
			<path class="st12" d="M165.7,468.3c1.5,1.8-3,5.6-1.5,7.4c1.5,1.8,6.1-2,7.6-0.3c1.5,1.8-3,5.6-1.5,7.4c1.5,1.8,6.1-2,7.6-0.3
				c1.5,1.8-3,5.6-1.5,7.4"/>
			<path class="st12" d="M159.5,461.2c1.5,1.8-3,5.6-1.5,7.4s6.1-2,7.6-0.3s-3,5.6-1.5,7.4c1.5,1.8,6.1-2,7.6-0.3s-3,5.6-1.5,7.4"/>
			<path class="st12" d="M153.6,454.1c1.5,1.8-3,5.6-1.5,7.4c1.5,1.8,6.1-2,7.6-0.3c1.5,1.8-3,5.6-1.5,7.4c1.5,1.8,6.1-2,7.6-0.3
				s-3,5.6-1.5,7.4"/>
			<path class="st12" d="M141.5,439.7c1.5,1.8-3,5.6-1.5,7.4c1.5,1.8,6.1-2,7.6-0.3c1.5,1.8-3,5.6-1.5,7.4c1.5,1.8,6.1-2,7.6-0.3
				c1.5,1.8-3,5.6-1.5,7.4"/>
			<path class="st12" d="M135.5,432.6c1.5,1.8-3,5.6-1.5,7.4s6.1-2,7.6-0.3c1.5,1.8-3,5.6-1.5,7.4s6.1-2,7.6-0.3s-3,5.6-1.5,7.4"/>
			<path class="st12" d="M123.4,418.2c1.5,1.8-3,5.6-1.5,7.4c1.5,1.8,6.1-2,7.6-0.3c1.5,1.8-3,5.6-1.5,7.4c1.5,1.8,6.1-2,7.6-0.3
				c1.5,1.8-3,5.6-1.5,7.4"/>
			<path class="st12" d="M117.4,411.1c1.5,1.8-3,5.6-1.5,7.4c1.5,1.8,6.1-2,7.6-0.3c1.5,1.8-3,5.6-1.5,7.4c1.5,1.8,6.1-2,7.6-0.3
				c1.5,1.8-3,5.6-1.5,7.4"/>
			<path class="st12" d="M105.3,396.7c1.5,1.8-3,5.6-1.5,7.4c1.5,1.8,6.1-2,7.6-0.3c1.5,1.8-3,5.6-1.5,7.4c1.5,1.8,6.1-2,7.6-0.3
				s-3,5.6-1.5,7.4"/>
			<path class="st12" d="M99.4,389.6c1.5,1.8-3,5.6-1.5,7.4c1.5,1.8,6.1-2,7.6-0.3c1.5,1.8-3,5.6-1.5,7.4c1.5,1.8,6.1-2,7.6-0.3
				c1.5,1.8-3,5.6-1.5,7.4"/>
		</g>
	</g>
	<path class="st13" d="M31.1,270c0,1,0.8,1.7,1.7,1.7c1,0,1.7-0.8,1.7-1.7c0-1-0.8-1.7-1.7-1.7C31.9,268.3,31.1,269.1,31.1,270z
		 M31.9,270c0-0.5,0.4-0.9,0.9-0.9c0.5,0,0.9,0.4,0.9,0.9c0,0.5-0.4,0.9-0.9,0.9C32.3,271,31.9,270.5,31.9,270z M20.4,274.5
		c0,1,0.8,1.7,1.7,1.7c1,0,1.7-0.8,1.7-1.7s-0.8-1.7-1.7-1.7C21.2,272.8,20.4,273.6,20.4,274.5z M21.2,274.5c0-0.5,0.4-0.9,0.9-0.9
		c0.5,0,0.9,0.4,0.9,0.9s-0.4,0.9-0.9,0.9C21.6,275.4,21.2,275,21.2,274.5z M22,266.7c0,1.1,0.9,1.9,1.9,1.9c1.1,0,1.9-0.9,1.9-1.9
		c0-1.1-0.9-1.9-1.9-1.9C22.9,264.7,22,265.6,22,266.7z M23.6,266.7c0-0.2,0.2-0.3,0.3-0.3c0.2,0,0.3,0.2,0.3,0.3s-0.2,0.3-0.3,0.3
		S23.6,266.9,23.6,266.7z M31.9,268.3c-0.1,0-0.1,0.1-0.2,0.1c-0.1,0-0.3-0.1-0.3-0.2l-6.8-10.5c-0.1-0.2-0.1-0.4,0.1-0.6
		c0.2-0.1,0.4-0.1,0.6,0.1l6.8,10.5C32.2,268,32.1,268.2,31.9,268.3z M22.4,264.9c-0.2,0.1-0.4,0.2-0.5,0.2c-0.2,0-0.4-0.1-0.6-0.3
		l-10-10.6c-0.3-0.3-0.3-0.8,0-1.1c0.3-0.3,0.8-0.3,1.1,0l10,10.6C22.7,264.1,22.7,264.6,22.4,264.9z M10.6,265.3
		c0.1-0.2,0.4-0.2,0.6-0.1l9.3,7.6c0.2,0.1,0.2,0.4,0.1,0.6c-0.1,0.1-0.2,0.1-0.3,0.1c-0.1,0-0.2,0-0.3-0.1l-9.3-7.6
		C10.5,265.7,10.5,265.5,10.6,265.3z M21.5,268.6C21.5,268.6,21.5,268.6,21.5,268.6l-8.6-8c-0.2-0.2-0.2-0.4,0-0.6
		c0.2-0.2,0.4-0.2,0.6,0l8.6,8c0,0,0,0,0,0c0,0,0,0,0,0c0.4,0.6,1.1,0.9,1.8,0.9c1.3,0,2.3-1,2.3-2.3c0-0.5-0.2-1-0.5-1.4l0,0
		c0,0,0,0,0,0l-6.9-9.6c-0.1-0.2-0.1-0.4,0.1-0.6c0.2-0.1,0.4-0.1,0.6,0.1l6.9,9.5c0,0,0,0,0,0c0.4,0.5,0.6,1.2,0.6,1.9
		c0,1.7-1.4,3.1-3.1,3.1C23,269.8,22.1,269.3,21.5,268.6z"/>
	<text transform="matrix(1 0 0 1 10.08 425.6588)" class="st14 st15 st16">Ozone Layer</text>
	<path class="st13" d="M49.6,256.1c0,1,0.8,1.7,1.7,1.7s1.7-0.8,1.7-1.7c0-1-0.8-1.7-1.7-1.7C50.3,254.3,49.6,255.1,49.6,256.1z
		 M50.4,256.1c0-0.5,0.4-0.9,0.9-0.9c0.5,0,0.9,0.4,0.9,0.9s-0.4,0.9-0.9,0.9S50.4,256.6,50.4,256.1z M38.9,260.5
		c0,1,0.8,1.7,1.7,1.7c1,0,1.7-0.8,1.7-1.7s-0.8-1.7-1.7-1.7C39.7,258.8,38.9,259.6,38.9,260.5z M39.7,260.5c0-0.5,0.4-0.9,0.9-0.9
		c0.5,0,0.9,0.4,0.9,0.9s-0.4,0.9-0.9,0.9C40.1,261.5,39.7,261,39.7,260.5z M40.4,252.7c0,1.1,0.9,1.9,1.9,1.9
		c1.1,0,1.9-0.9,1.9-1.9c0-1.1-0.9-1.9-1.9-1.9C41.3,250.8,40.4,251.6,40.4,252.7z M42,252.7c0-0.2,0.2-0.3,0.3-0.3
		c0.2,0,0.3,0.2,0.3,0.3s-0.2,0.3-0.3,0.3S42,252.9,42,252.7z M50.4,254.4c-0.1,0-0.1,0.1-0.2,0.1c-0.1,0-0.3-0.1-0.3-0.2L43,243.8
		c-0.1-0.2-0.1-0.4,0.1-0.6c0.2-0.1,0.4-0.1,0.6,0.1l6.8,10.5C50.6,254,50.5,254.3,50.4,254.4z M40.8,250.9
		c-0.2,0.1-0.4,0.2-0.5,0.2c-0.2,0-0.4-0.1-0.6-0.3l-10-10.6c-0.3-0.3-0.3-0.8,0-1.1c0.3-0.3,0.8-0.3,1.1,0l10,10.6
		C41.1,250.1,41.1,250.6,40.8,250.9z M29.1,251.3c0.1-0.2,0.4-0.2,0.6-0.1l9.3,7.6c0.2,0.1,0.2,0.4,0.1,0.6
		c-0.1,0.1-0.2,0.1-0.3,0.1c-0.1,0-0.2,0-0.3-0.1l-9.3-7.6C29,251.7,28.9,251.5,29.1,251.3z M40,254.6
		C39.9,254.6,39.9,254.6,40,254.6l-8.6-8c-0.2-0.2-0.2-0.4,0-0.6c0.2-0.2,0.4-0.2,0.6,0l8.6,8c0,0,0,0,0,0c0,0,0,0,0,0
		c0.4,0.6,1.1,0.9,1.8,0.9c1.3,0,2.3-1,2.3-2.3c0-0.5-0.2-1-0.5-1.4l0,0c0,0,0,0,0,0l-6.9-9.6c-0.1-0.2-0.1-0.4,0.1-0.6
		c0.2-0.1,0.4-0.1,0.6,0.1l6.9,9.5c0,0,0,0,0,0c0.4,0.5,0.6,1.2,0.6,1.9c0,1.7-1.4,3.1-3.1,3.1C41.4,255.8,40.5,255.4,40,254.6z"/>
	<path class="st13" d="M55.7,279.5c0,1,0.8,1.7,1.7,1.7s1.7-0.8,1.7-1.7c0-1-0.8-1.7-1.7-1.7C56.5,277.7,55.7,278.5,55.7,279.5z
		 M56.5,279.5c0-0.5,0.4-0.9,0.9-0.9c0.5,0,0.9,0.4,0.9,0.9c0,0.5-0.4,0.9-0.9,0.9C56.9,280.4,56.5,280,56.5,279.5z M45,283.9
		c0,1,0.8,1.7,1.7,1.7c1,0,1.7-0.8,1.7-1.7s-0.8-1.7-1.7-1.7C45.8,282.2,45,283,45,283.9z M45.8,283.9c0-0.5,0.4-0.9,0.9-0.9
		c0.5,0,0.9,0.4,0.9,0.9s-0.4,0.9-0.9,0.9C46.2,284.9,45.8,284.4,45.8,283.9z M46.6,276.1c0,1.1,0.9,1.9,1.9,1.9
		c1.1,0,1.9-0.9,1.9-1.9c0-1.1-0.9-1.9-1.9-1.9C47.4,274.2,46.6,275,46.6,276.1z M48.2,276.1c0-0.2,0.2-0.3,0.3-0.3
		c0.2,0,0.3,0.2,0.3,0.3c0,0.2-0.2,0.3-0.3,0.3C48.3,276.4,48.2,276.3,48.2,276.1z M56.5,277.8c-0.1,0-0.1,0.1-0.2,0.1
		c-0.1,0-0.3-0.1-0.3-0.2l-6.8-10.5c-0.1-0.2-0.1-0.4,0.1-0.6c0.2-0.1,0.4-0.1,0.6,0.1l6.8,10.5C56.7,277.4,56.7,277.7,56.5,277.8z
		 M46.9,274.3c-0.2,0.1-0.4,0.2-0.5,0.2c-0.2,0-0.4-0.1-0.6-0.3l-10-10.6c-0.3-0.3-0.3-0.8,0-1.1c0.3-0.3,0.8-0.3,1.1,0l10,10.6
		C47.3,273.5,47.2,274,46.9,274.3z M35.2,274.7c0.1-0.2,0.4-0.2,0.6-0.1l9.3,7.6c0.2,0.1,0.2,0.4,0.1,0.6c-0.1,0.1-0.2,0.1-0.3,0.1
		c-0.1,0-0.2,0-0.3-0.1l-9.3-7.6C35.1,275.1,35.1,274.9,35.2,274.7z M46.1,278C46.1,278,46.1,278,46.1,278l-8.6-8
		c-0.2-0.2-0.2-0.4,0-0.6c0.2-0.2,0.4-0.2,0.6,0l8.6,8c0,0,0,0,0,0c0,0,0,0,0,0c0.4,0.6,1.1,0.9,1.8,0.9c1.3,0,2.3-1,2.3-2.3
		c0-0.5-0.2-1-0.5-1.4l0,0c0,0,0,0,0,0l-6.9-9.6c-0.1-0.2-0.1-0.4,0.1-0.6c0.2-0.1,0.4-0.1,0.6,0.1l6.9,9.5c0,0,0,0,0,0
		c0.4,0.5,0.6,1.2,0.6,1.9c0,1.7-1.4,3.1-3.1,3.1C47.5,279.2,46.7,278.8,46.1,278z"/>
</g>
<g id="backgournd">
	<linearGradient id="SVGID_2_" gradientUnits="userSpaceOnUse" x1="398.4133" y1="944.2695" x2="401.7307" y2="15.4073">
		<stop  offset="0" style="stop-color:#9DC6E9"/>
		<stop  offset="0.2589" style="stop-color:#9BC3E7"/>
		<stop  offset="0.4016" style="stop-color:#95BADE"/>
		<stop  offset="0.516" style="stop-color:#8BACD1"/>
		<stop  offset="0.6155" style="stop-color:#7E9AC2"/>
		<stop  offset="0.7052" style="stop-color:#6F85B0"/>
		<stop  offset="0.7879" style="stop-color:#5E6E9D"/>
		<stop  offset="0.8653" style="stop-color:#4B5689"/>
		<stop  offset="0.9364" style="stop-color:#373C75"/>
		<stop  offset="1" style="stop-color:#242163"/>
	</linearGradient>
	<rect x="0" y="0" class="st17" width="800" height="1000"/>
	<g>
		<text transform="matrix(1 0 0 1 709.5066 585.0941)" class="st18 st15 st19">50 KM</text>
		<text transform="matrix(1 0 0 1 709.5066 920.1801)" class="st18 st15 st19">10 KM</text>
		<text transform="matrix(1 0 0 1 711.1335 170.7591)" class="st20 st15 st19">640 KM</text>
		<text transform="matrix(1 0 0 1 721.0876 338.268)" class="st18 st15 st21">ALTITUDE</text>
		<polyline class="st22" points="694.8,342.8 657.8,332.1 734.6,302.6 694.8,281.2 694.8,182.5 694.1,1.7 		"/>
	</g>
	<path class="st6" d="M445,986.3l1-2.8l30-8.8l16.9,3.9c12.1,2.8,26.9,2.9,39.4,0.4l21.1-4.3l16.4,3.9c13.1,3.1,29.4,3.1,42.6,0
		l16.4-3.9l17.5,3.9c12.6,2.8,27.9,2.8,40.6,0.1l18.7-4l17.7,4.2c11.6,2.7,26,2.9,38,0.5l23.1-4.7l16.8,7v18.2L441,1000L445,986.3z"
		/>
	<g>
		<polyline class="st7" points="454.8,989.9 454.4,982.2 298.4,982 258.4,982.4 224.7,981.9 188.8,928.3 152.1,981.4 109.1,982.3 
			109,1000 361.1,999.9 494.2,1000 494.2,996.2 492.9,996 454.5,987.8 		"/>
	</g>
	<polygon class="st8" points="188.8,928.4 176.4,946.4 181.8,942.9 188.5,946.4 194.4,943.5 200.6,946.1 	"/>
	<rect y="982.5" class="st7" width="132" height="17.5"/>
	<path class="st23" d="M695.8,341.7L695.8,341.7c-0.4,0-0.8,0.3-0.8,0.8v656.8c0,0.4,0.3,0.8,0.8,0.8l0,0c0.4,0,0.8-0.3,0.8-0.8
		V342.4C696.5,342,696.2,341.7,695.8,341.7z"/>
</g>
<g id="SAicon" onmouseover="evt.target.ownerDocument.getElementById('SAtext').setAttribute('opacity', 1)" onmouseout="evt.target.ownerDocument.getElementById('SAtext').setAttribute('opacity', 0)">
	<g>
		<polygon class="st5" points="403.7,38.2 405.9,36 403.7,33.8 399.3,38.2 401.5,40.4 		"/>
		<polygon class="st5" points="395.2,46.7 399.6,42.3 397.4,40.1 393,44.5 394.1,45.6 		"/>
		<polygon class="st5" points="393.3,48.5 392.3,47.4 391.2,46.4 386.8,50.7 389,52.9 		"/>
		
			<rect x="398.8" y="44.3" transform="matrix(-0.7071 -0.7071 0.7071 -0.7071 649.9449 364.1122)" class="st5" width="3.1" height="6.2"/>
		<polygon class="st5" points="403.3,42.3 405.5,44.5 407.7,42.2 409.9,40 407.7,37.8 405.6,40 		"/>
		<polygon class="st5" points="395.2,50.4 395.2,50.4 390.8,54.8 393,57 397.4,52.6 		"/>
		<polygon class="st5" points="407.7,50.3 406.6,49.2 405.5,48.2 401.1,52.6 403.3,54.8 		"/>
		<polygon class="st5" points="407.4,46.3 408.5,47.4 409.5,48.5 414,44.1 411.8,41.9 409.6,44.1 		"/>
		
			<rect x="396.6" y="54.6" transform="matrix(-0.7071 -0.7071 0.7071 -0.7071 638.9159 380.0874)" class="st5" width="3.1" height="6.2"/>
		
			<rect x="360.7" y="74.3" transform="matrix(-0.7071 -0.7071 0.7071 -0.7071 563.6451 388.3556)" class="st5" width="3.1" height="6.2"/>
		<polygon class="st5" points="361.1,84.5 358.9,86.7 356.7,88.9 358.9,91.1 363.3,86.6 		"/>
		<polygon class="st5" points="359.3,82.6 357.1,80.4 352.7,84.8 354.9,87 357.1,84.8 		"/>
		<polygon class="st5" points="365.2,88.5 365.2,88.5 360.8,92.9 362.9,95.1 367.4,90.7 		"/>
		<polygon class="st5" points="371.5,78.5 375.8,74.1 373.6,71.9 369.3,76.3 370.3,77.4 		"/>
		<polygon class="st5" points="365.2,72.3 367.4,74.5 367.4,74.5 367.4,74.5 371.8,70.1 369.6,67.9 		"/>
		<polygon class="st5" points="368.5,79.3 367.4,78.2 363,82.6 365.2,84.8 369.6,80.4 369.6,80.4 369.6,80.4 		"/>
		<polygon class="st5" points="371.5,82.2 371.5,82.2 367,86.6 369.2,88.8 373.6,84.4 		"/>
		
			<rect x="375" y="76.2" transform="matrix(0.7071 0.7071 -0.7071 0.7071 166.3596 -243.0589)" class="st5" width="3.1" height="6.2"/>
		<polygon class="st5" points="391.2,42.7 391.2,42.7 391.2,42.7 		"/>
		<path class="st5" d="M396.6,67.9l-20.8-20.8L366,57l20.8,20.8c0.9-2.2,2.2-4.2,3.9-5.9S394.4,68.8,396.6,67.9z"/>
		<path class="st5" d="M413.8,73.5c-4.1-4-10-5.2-15.1-3.6c-2.2,0.7-4.4,1.9-6.1,3.7c-1.8,1.8-3,3.9-3.7,6.1
			c-1.7,5.2-0.4,11,3.6,15.1l9.8-9.8l1.9,1.9c-0.4,1.1-0.1,2.4,0.7,3.3c1.2,1.2,3.2,1.2,4.4,0c1.2-1.2,1.2-3.2,0-4.4
			c-0.9-0.9-2.1-1.1-3.3-0.7l-1.9-1.9L413.8,73.5z"/>
		<path class="st5" d="M365.4,53.8l7.2-7.2c-1.7-1.3-4-1.4-5.8-0.4l-2.9-2.9c-0.5-0.5-1.4-0.5-1.8,0l0,0c-0.5,0.5-0.5,1.4,0,1.8
			L365,48C364,49.8,364.1,52.1,365.4,53.8z"/>
	</g>
</g>
<g id="SAtext" class="st24 textBox">
	<rect x="254.5" y="147.7" class="st25" width="331.6" height="217.7"/>
	<rect x="264" y="154.7" class="st26" width="318.8" height="268.2"/>
	<text transform="matrix(1 0 0 1 263.9986 168.2633)" class="st27"><tspan x="0" y="0" class="st18 st28 st29">Satellites</tspan><tspan x="0" y="21.6" class="st18 st28 st29 st30">	</tspan><tspan x="0" y="43.2" class="st18 st28 st29">Allows scientists to view large weather </tspan><tspan x="0" y="64.8" class="st18 st28 st29">systems on a worldwide scale and watch </tspan><tspan x="0" y="86.4" class="st18 st28 st29">for incoming weather</tspan><tspan x="0" y="129.6" class="st18 st28 st29">Cons:  Hugely expensive and does not </tspan><tspan x="0" y="151.2" class="st18 st28 st29">provide information on the lowest </tspan><tspan x="0" y="172.8" class="st18 st28 st29">layers for the atmosphere in fine detail </tspan></text>
</g>
<g id="WBicon" class="textBox">
	<g>
		<polygon class="st2" points="65.4,672.7 63.4,659.4 64.6,659.5 66.6,672.7 		"/>
		<polygon class="st2" points="72.5,673 71.3,672.9 73.3,659.7 74.5,659.6 		"/>
		<rect x="68.3" y="659.5" class="st2" width="1.2" height="13.3"/>
		<path class="st2" d="M69,619.1c-6.9,0-12.5,6.7-12.5,15c0,1.1,0.1,2.2,0.3,3.1l0,0.2l0.1,0.5c0.2,1.1,0.5,2.5,0.9,3.5l5.2,17.3h12
			l6.2-20.7l0-0.1c0.2-1.1,0.3-2.7,0.3-3.7C81.5,625.8,75.9,619.1,69,619.1z"/>
		<path class="st3" d="M71.8,673.8h-6c-1.1,0-2.1,1.4-2.1,3.1v3.6c0,1.7,0.9,3.1,2.1,3.1h6c1.1,0,2.1-1.4,2.1-3.1v-3.6
			C73.9,675.2,73,673.8,71.8,673.8z"/>
	</g>
</g>
<g id="WBtext">
	<rect x="113" y="443.7" class="st31" width="331.6" height="295.5"/>
	<rect x="122.5" y="450.6" class="st1" width="318.8" height="280.2"/>
	<text transform="matrix(1 0 0 1 122.5131 464.2573)"><tspan x="0" y="0" class="st18 st28 st29">Weather balloons</tspan><tspan x="0" y="43.2" class="st18 st28 st29">High altitude balloon that travels </tspan><tspan x="0" y="64.8" class="st18 st28 st29">through the lowest part of our atmo</tspan><tspan x="282.8" y="64.8" class="st18 st28 st29">-</tspan><tspan x="0" y="86.4" class="st18 st28 st29">sphere </tspan><tspan x="0" y="129.6" class="st18 st28 st29">An attached communication device </tspan><tspan x="0" y="151.2" class="st18 st28 st29">measures, collects and transmits atmo</tspan><tspan x="304" y="151.2" class="st18 st28 st29">-</tspan><tspan x="0" y="172.8" class="st18 st28 st29">spheric pressure, temperature, </tspan><tspan x="0" y="194.4" class="st18 st28 st29">humidity and wind speed</tspan><tspan x="0" y="237.6" class="st18 st28 st29">Cons: Only 82 locations in US launch a </tspan><tspan x="0" y="259.2" class="st18 st28 st29">balloon twice a day</tspan></text>
</g>
<g id="MTicon">
	<path class="st13" d="M84.7,425.9c0,1.4,1.2,2.6,2.6,2.6s2.6-1.2,2.6-2.6c0-1.4-1.2-2.6-2.6-2.6C85.9,423.3,84.7,424.5,84.7,425.9z
		 M85.9,425.9c0-0.8,0.6-1.4,1.4-1.4c0.8,0,1.4,0.6,1.4,1.4c0,0.8-0.6,1.4-1.4,1.4C86.5,427.3,85.9,426.7,85.9,425.9z M68.5,432.7
		c0,1.4,1.2,2.6,2.6,2.6c1.4,0,2.6-1.2,2.6-2.6s-1.2-2.6-2.6-2.6C69.7,430.1,68.5,431.2,68.5,432.7z M69.7,432.7
		c0-0.8,0.6-1.4,1.4-1.4c0.8,0,1.4,0.6,1.4,1.4s-0.6,1.4-1.4,1.4C70.4,434.1,69.7,433.5,69.7,432.7z M70.9,420.8
		c0,1.6,1.3,2.9,2.9,2.9c1.6,0,2.9-1.3,2.9-2.9c0-1.6-1.3-2.9-2.9-2.9C72.2,417.9,70.9,419.2,70.9,420.8z M73.3,420.8
		c0-0.3,0.2-0.5,0.5-0.5c0.3,0,0.5,0.2,0.5,0.5c0,0.3-0.2,0.5-0.5,0.5S73.3,421.1,73.3,420.8z M85.9,423.4c-0.1,0.1-0.2,0.1-0.3,0.1
		c-0.2,0-0.4-0.1-0.5-0.3l-10.3-15.8c-0.2-0.3-0.1-0.7,0.2-0.8s0.7-0.1,0.8,0.2l10.3,15.8C86.3,422.8,86.2,423.2,85.9,423.4z
		 M71.4,418.1c-0.2,0.2-0.5,0.3-0.8,0.3c-0.3,0-0.6-0.1-0.9-0.4l-15.1-16c-0.5-0.5-0.4-1.3,0-1.7c0.5-0.5,1.3-0.4,1.7,0l15.1,16
		C71.9,416.9,71.9,417.7,71.4,418.1z M53.7,418.7c0.2-0.3,0.6-0.3,0.9-0.1l14,11.6c0.3,0.2,0.3,0.6,0.1,0.9
		c-0.1,0.1-0.3,0.2-0.5,0.2c-0.1,0-0.3,0-0.4-0.1l-14.1-11.6C53.5,419.4,53.5,419,53.7,418.7z M70.1,423.7
		C70.1,423.7,70.1,423.7,70.1,423.7l-13-12.2c-0.2-0.2-0.3-0.6,0-0.9c0.2-0.2,0.6-0.3,0.9,0l13,12.2c0,0,0,0,0,0c0,0,0,0,0,0
		c0.7,0.9,1.7,1.4,2.8,1.4c1.9,0,3.5-1.6,3.5-3.5c0-0.8-0.3-1.5-0.7-2.1l0,0c0,0,0,0,0,0l-10.4-14.5c-0.2-0.3-0.1-0.6,0.1-0.8
		c0.3-0.2,0.6-0.1,0.8,0.1L77.5,418c0,0,0,0,0,0c0.6,0.8,1,1.8,1,2.9c0,2.6-2.1,4.7-4.7,4.7C72.4,425.5,71,424.9,70.1,423.7z"/>
	<path class="st13" d="M112.6,404.8c0,1.4,1.2,2.6,2.6,2.6c1.4,0,2.6-1.2,2.6-2.6c0-1.4-1.2-2.6-2.6-2.6
		C113.8,402.1,112.6,403.3,112.6,404.8z M113.8,404.8c0-0.8,0.6-1.4,1.4-1.4c0.8,0,1.4,0.6,1.4,1.4c0,0.8-0.6,1.4-1.4,1.4
		C114.5,406.2,113.8,405.5,113.8,404.8z M96.5,411.5c0,1.4,1.2,2.6,2.6,2.6c1.4,0,2.6-1.2,2.6-2.6c0-1.4-1.2-2.6-2.6-2.6
		C97.6,408.9,96.5,410.1,96.5,411.5z M97.7,411.5c0-0.8,0.6-1.4,1.4-1.4c0.8,0,1.4,0.6,1.4,1.4c0,0.8-0.6,1.4-1.4,1.4
		C98.3,412.9,97.7,412.3,97.7,411.5z M98.8,399.7c0,1.6,1.3,2.9,2.9,2.9c1.6,0,2.9-1.3,2.9-2.9c0-1.6-1.3-2.9-2.9-2.9
		C100.1,396.7,98.8,398.1,98.8,399.7z M101.2,399.7c0-0.3,0.2-0.5,0.5-0.5c0.3,0,0.5,0.2,0.5,0.5c0,0.3-0.2,0.5-0.5,0.5
		S101.2,400,101.2,399.7z M113.8,402.2c-0.1,0.1-0.2,0.1-0.3,0.1c-0.2,0-0.4-0.1-0.5-0.3l-10.3-15.8c-0.2-0.3-0.1-0.7,0.2-0.8
		c0.3-0.2,0.7-0.1,0.8,0.2l10.3,15.8C114.2,401.7,114.1,402,113.8,402.2z M99.4,397c-0.2,0.2-0.5,0.3-0.8,0.3
		c-0.3,0-0.6-0.1-0.9-0.4l-15.1-16c-0.5-0.5-0.4-1.3,0-1.7c0.5-0.5,1.3-0.4,1.7,0l15.1,16C99.9,395.8,99.9,396.5,99.4,397z
		 M81.6,397.6c0.2-0.3,0.6-0.3,0.9-0.1l14,11.6c0.3,0.2,0.3,0.6,0.1,0.9c-0.1,0.1-0.3,0.2-0.5,0.2c-0.1,0-0.3,0-0.4-0.1l-14.1-11.6
		C81.5,398.2,81.4,397.8,81.6,397.6z M98.1,402.6C98.1,402.6,98.1,402.6,98.1,402.6l-13-12.2c-0.2-0.2-0.3-0.6,0-0.9
		c0.2-0.2,0.6-0.3,0.9,0l13,12.2c0,0,0,0,0,0c0,0,0,0,0,0c0.7,0.9,1.7,1.4,2.8,1.4c1.9,0,3.5-1.6,3.5-3.5c0-0.8-0.3-1.5-0.7-2.1l0,0
		c0,0,0,0,0,0l-10.4-14.5c-0.2-0.3-0.1-0.6,0.1-0.8c0.3-0.2,0.6-0.1,0.8,0.1l10.4,14.4c0,0,0,0,0,0c0.6,0.8,1,1.8,1,2.9
		c0,2.6-2.1,4.7-4.7,4.7C100.3,404.4,99,403.7,98.1,402.6z"/>
	<path class="st13" d="M121.9,440.2c0,1.4,1.2,2.6,2.6,2.6s2.6-1.2,2.6-2.6c0-1.4-1.2-2.6-2.6-2.6
		C123.1,437.6,121.9,438.8,121.9,440.2z M123.1,440.2c0-0.8,0.6-1.4,1.4-1.4c0.8,0,1.4,0.6,1.4,1.4c0,0.8-0.6,1.4-1.4,1.4
		S123.1,441,123.1,440.2z M105.7,447c0,1.4,1.2,2.6,2.6,2.6c1.4,0,2.6-1.2,2.6-2.6c0-1.4-1.2-2.6-2.6-2.6
		C106.9,444.3,105.7,445.5,105.7,447z M106.9,447c0-0.8,0.6-1.4,1.4-1.4c0.8,0,1.4,0.6,1.4,1.4c0,0.8-0.6,1.4-1.4,1.4
		C107.6,448.4,106.9,447.7,106.9,447z M108.1,435.1c0,1.6,1.3,2.9,2.9,2.9c1.6,0,2.9-1.3,2.9-2.9c0-1.6-1.3-2.9-2.9-2.9
		C109.4,432.2,108.1,433.5,108.1,435.1z M110.5,435.1c0-0.3,0.2-0.5,0.5-0.5c0.3,0,0.5,0.2,0.5,0.5c0,0.3-0.2,0.5-0.5,0.5
		C110.7,435.6,110.5,435.4,110.5,435.1z M123.1,437.6c-0.1,0.1-0.2,0.1-0.3,0.1c-0.2,0-0.4-0.1-0.5-0.3L112,421.6
		c-0.2-0.3-0.1-0.7,0.2-0.8c0.3-0.2,0.7-0.1,0.8,0.2l10.3,15.8C123.5,437.1,123.4,437.5,123.1,437.6z M108.6,432.4
		c-0.2,0.2-0.5,0.3-0.8,0.3c-0.3,0-0.6-0.1-0.9-0.4l-15.1-16c-0.5-0.5-0.4-1.3,0-1.7c0.5-0.5,1.3-0.4,1.7,0l15.1,16
		C109.2,431.2,109.1,432,108.6,432.4z M90.9,433c0.2-0.3,0.6-0.3,0.9-0.1l14,11.6c0.3,0.2,0.3,0.6,0.1,0.9c-0.1,0.1-0.3,0.2-0.5,0.2
		c-0.1,0-0.3,0-0.4-0.1L91,433.8C90.7,433.6,90.7,433.3,90.9,433z M107.4,438C107.3,438,107.3,438,107.4,438l-13-12.2
		c-0.2-0.2-0.3-0.6,0-0.9c0.2-0.2,0.6-0.3,0.9,0l13,12.2c0,0,0,0,0,0c0,0,0,0,0,0c0.7,0.9,1.7,1.4,2.8,1.4c1.9,0,3.5-1.6,3.5-3.5
		c0-0.8-0.3-1.5-0.7-2.1l0,0c0,0,0,0,0,0l-10.4-14.5c-0.2-0.3-0.1-0.6,0.1-0.8c0.3-0.2,0.6-0.1,0.8,0.1l10.4,14.4c0,0,0,0,0,0
		c0.6,0.8,1,1.8,1,2.9c0,2.6-2.1,4.7-4.7,4.7C109.6,439.8,108.2,439.1,107.4,438z"/>
</g>
<g id="MTtext">
	<rect x="139" y="409.2" class="st31" width="331.6" height="79"/>
	<rect x="148.5" y="416.2" class="st1" width="318.8" height="268.2"/>
	<text transform="matrix(1 0 0 1 148.5044 429.7602)"><tspan x="0" y="0" class="st18 st28 st29">Most meteors burn up after entering </tspan><tspan x="0" y="21.6" class="st18 st28 st29">Earth’s atmosphere mesosphere and </tspan><tspan x="0" y="43.2" class="st18 st28 st29">before reaching Earth’s surface. </tspan></text>
</g>
<g id="OLicon">
	<linearGradient id="SVGID_3_" gradientUnits="userSpaceOnUse" x1="399.8231" y1="806.3593" x2="399.8231" y2="687.3706">
		<stop  offset="0" style="stop-color:#9AC6EA"/>
		<stop  offset="0.1058" style="stop-color:#94C6EB"/>
		<stop  offset="0.2363" style="stop-color:#83C4EC"/>
		<stop  offset="0.3792" style="stop-color:#61C2EF"/>
		<stop  offset="0.5099" style="stop-color:#14C1F2"/>
		<stop  offset="0.5545" style="stop-color:#45C0EF"/>
		<stop  offset="0.6658" style="stop-color:#74C1EA"/>
		<stop  offset="0.7776" style="stop-color:#8DC2E7"/>
		<stop  offset="0.889" style="stop-color:#9AC2E5"/>
		<stop  offset="1" style="stop-color:#9FC2E4"/>
	</linearGradient>
	<rect x="0" y="680.5" class="st32" width="799.6" height="141.9"/>
</g>
<g id="OLtext">
	<rect x="151.5" y="637.1" class="st31" width="331.6" height="99.9"/>
	<rect x="161" y="605.6" class="st1" width="318.8" height="136.2"/>
	<text transform="matrix(1 0 0 1 161.007 662.4362)"><tspan x="0" y="0" class="st18 st28 st29">Ozone Layer, also known as the Earth’s </tspan><tspan x="0" y="21.6" class="st18 st28 st29">shield, the layer of the atmosphere that </tspan><tspan x="0" y="43.2" class="st18 st28 st29">absorbs most of the Sun&apos;s ultraviolet </tspan><tspan x="0" y="64.8" class="st18 st28 st29">(UV) radiation.</tspan></text>
</g>
<g id="RAicon">
	<g>
		<path class="st33" d="M421.9,968.4c6.4-6.1,9.2-14.6,7.9-22.6l-34.4,28.5c6,2.1,12.8,1.9,19-0.9l-2,9.8h14.5L421.9,968.4z"/>
		<path class="st33" d="M413.2,958.1l-3.5-2.9c0.4-0.8,0.3-1.8-0.3-2.5c-0.8-1-2.3-1.1-3.3-0.3c-1,0.8-1.1,2.3-0.3,3.3
			c0.6,0.7,1.5,1,2.3,0.7l2.2,4L413.2,958.1z"/>
	</g>
	<g>
		<path class="st12" d="M327.8,847c2.7,3.2-5.4,10.1-2.7,13.3c2.7,3.2,10.9-3.7,13.6-0.5c2.7,3.2-5.4,10.1-2.7,13.3
			c2.7,3.2,10.9-3.7,13.6-0.5c2.7,3.2-5.4,10.1-2.7,13.3"/>
		<g>
			<path class="st34" d="M382,911.2c2.7,3.2-5.4,10.1-2.7,13.3c2.7,3.2,10.9-3.7,13.6-0.5c2.7,3.2-5.4,10.1-2.7,13.3
				c2.7,3.2,10.9-3.7,13.6-0.5c2.7,3.2-5.4,10.1-2.7,13.3"/>
			<path class="st34" d="M371.3,898.4c2.7,3.2-5.4,10.1-2.7,13.3c2.7,3.2,10.9-3.7,13.6-0.5c2.7,3.2-5.4,10.1-2.7,13.3
				c2.7,3.2,10.9-3.7,13.6-0.5c2.7,3.2-5.4,10.1-2.7,13.3"/>
			<path class="st34" d="M349.7,872.6c2.7,3.2-5.4,10.1-2.7,13.3c2.7,3.2,10.9-3.7,13.6-0.5c2.7,3.2-5.4,10.1-2.7,13.3
				c2.7,3.2,10.9-3.7,13.6-0.5c2.7,3.2-5.4,10.1-2.7,13.3"/>
			<path class="st34" d="M338.9,859.8c2.7,3.2-5.4,10.1-2.7,13.3c2.7,3.2,10.9-3.7,13.6-0.5c2.7,3.2-5.4,10.1-2.7,13.3
				c2.7,3.2,10.9-3.7,13.6-0.5c2.7,3.2-5.4,10.1-2.7,13.3"/>
			<path class="st34" d="M317.1,834.3c2.7,3.2-5.4,10.1-2.7,13.3c2.7,3.2,10.9-3.7,13.6-0.5c2.7,3.2-5.4,10.1-2.7,13.3
				c2.7,3.2,10.9-3.7,13.6-0.5c2.7,3.2-5.4,10.1-2.7,13.3"/>
			<path class="st34" d="M295.5,808.4c2.7,3.2-5.4,10.1-2.7,13.3c2.7,3.2,10.9-3.7,13.6-0.5c2.7,3.2-5.4,10.1-2.7,13.3
				c2.7,3.2,10.9-3.7,13.6-0.5c2.7,3.2-5.4,10.1-2.7,13.3"/>
			<path class="st34" d="M284.7,795.7c2.7,3.2-5.4,10.1-2.7,13.3c2.7,3.2,10.9-3.7,13.6-0.5c2.7,3.2-5.4,10.1-2.7,13.3
				c2.7,3.2,10.9-3.7,13.6-0.5c2.7,3.2-5.4,10.1-2.7,13.3"/>
			<path class="st34" d="M262.9,769.8c2.7,3.2-5.4,10.1-2.7,13.3c2.7,3.2,10.9-3.7,13.6-0.5c2.7,3.2-5.4,10.1-2.7,13.3
				c2.7,3.2,10.9-3.7,13.6-0.5c2.7,3.2-5.4,10.1-2.7,13.3"/>
			<path class="st34" d="M252.1,757.1c2.7,3.2-5.4,10.1-2.7,13.3c2.7,3.2,10.9-3.7,13.6-0.5c2.7,3.2-5.4,10.1-2.7,13.3
				c2.7,3.2,10.9-3.7,13.6-0.5c2.7,3.2-5.4,10.1-2.7,13.3"/>
			<path class="st34" d="M230.5,731.2c2.7,3.2-5.4,10.1-2.7,13.3c2.7,3.2,10.9-3.7,13.6-0.5c2.7,3.2-5.4,10.1-2.7,13.3
				c2.7,3.2,10.9-3.7,13.6-0.5c2.7,3.2-5.4,10.1-2.7,13.3"/>
			<path class="st34" d="M219.8,718.5c2.7,3.2-5.4,10.1-2.7,13.3c2.7,3.2,10.9-3.7,13.6-0.5c2.7,3.2-5.4,10.1-2.7,13.3
				c2.7,3.2,10.9-3.7,13.6-0.5c2.7,3.2-5.4,10.1-2.7,13.3"/>
		</g>
	</g>
</g>
<g id="RAtext">
	<rect x="304.5" y="506.7" class="st31" width="331.6" height="265.4"/>
	<rect x="314" y="513.6" class="st1" width="318.8" height="268.2"/>
	<text transform="matrix(1 0 0 1 313.9914 527.2524)"><tspan x="0" y="0" class="st18 st28 st29">Radar</tspan><tspan x="0" y="43.2" class="st18 st28 st29">Transmits an electromagnetic wave </tspan><tspan x="0" y="64.8" class="st18 st28 st29">fields measuring what is reflected back</tspan><tspan x="0" y="108" class="st18 st28 st29">Doppler radar can detect precipitation </tspan><tspan x="0" y="129.6" class="st18 st28 st29">and its movement</tspan><tspan x="0" y="151.2" class="st18 st28 st29 st30">	</tspan><tspan x="0" y="172.8" class="st18 st28 st29">Con: Doesn’t measure temperature, hu</tspan><tspan x="307.8" y="172.8" class="st18 st28 st29">-</tspan><tspan x="0" y="194.4" class="st18 st28 st29">midity or wind speed and has difficulty </tspan><tspan x="0" y="216" class="st18 st28 st29">measuring light rain and distant thun</tspan><tspan x="297.8" y="216" class="st18 st28 st29">-</tspan><tspan x="0" y="237.6" class="st18 st28 st29">derstorms</tspan></text>
</g>
<g id="PLicon">
	<path class="st9" d="M598.8,892.4c0.2,0,0.4,0,0.5-0.1l15.2-1.7l0.1,0.2l-1.5,18l4.2-1.4l2.2-5.7l2.1-5.7l2.8-7.5l0-0.1l10-3.3
		c0,0,2.9-1.4,2.6-2.7c-0.3-1.4-3.2-1.3-3.2-1.3l-11.3,1.6l-5.3-4.7l-4.6-4.1l-4.2-3.7l-4.9,0.7L613,885l-13.8,4.8
		c-0.3,0.1-0.6,0.2-0.9,0.3l-4.7-4.2l-2.2,0.5l3,4.7l0.1,0.4l0.3,1.2l0.3,1.1l-0.4,5.6l1.9-0.5L598.8,892.4z"/>
</g>
<g id="PLtext">
	<rect x="364.5" y="797.2" class="st31" width="331.6" height="61.8"/>
	<rect x="374" y="765.1" class="st1" width="318.8" height="86.7"/>
	<text transform="matrix(1 0 0 1 373.9941 821.9415)"><tspan x="0" y="0" class="st18 st28 st29">Commercial jet planes fly in the lower </tspan><tspan x="0" y="21.6" class="st18 st28 st29">stratosphere to avoid turbulence.</tspan></text>
</g>
<g id="WHicon">
	<g>
		<g>
			<g>
				<path class="st4" d="M258.2,963.1l-2.2-0.6l0.5-0.9c0.4-0.7,0.1-1.5-0.6-1.9s-1.5-0.1-1.9,0.6l-1.2,2.4
					c-0.2,0.4-0.2,0.8-0.1,1.2c0.2,0.4,0.5,0.7,0.9,0.8l1.9,0.5l-2.6,3.4c-0.5,0.6-0.4,1.5,0.3,2c0.2,0.2,0.5,0.3,0.8,0.3
					c0.5,0,0.8-0.2,1.1-0.5l3.9-5.1c0.3-0.4,0.4-0.8,0.2-1.3C259,963.6,258.7,963.2,258.2,963.1z"/>
			</g>
		</g>
		<g>
			<path class="st4" d="M274.5,944c-0.6-4.4-4.8-7.8-10.1-7.8c-1.1,0-2.2,0.2-3.2,0.4c-1.9-2.2-4.9-3.7-8.2-3.7
				c-5.5,0.1-10.1,4-10.1,8.8c0,0.2,0,0.5,0,0.7c-3,1.6-4.8,4.4-4.8,7.5c0,4.8,4.6,8.7,10.2,8.7c1.8,0,3.6-0.4,5.2-1.2
				c1.6,0.8,3.3,1.2,5.2,1.2c1.5,0,2.9-0.2,4.2-0.8c1.3,0.5,2.7,0.8,4.2,0.8c5.6,0,10.2-3.9,10.2-8.7
				C277.3,947.8,276.3,945.6,274.5,944z"/>
			<g>
				<path class="st4" d="M269.1,961.2c-0.8-0.4-1.6-0.1-2,0.6l-1.3,2.4c-0.4,0.8-0.1,1.6,0.6,2c0.2,0.2,0.5,0.2,0.7,0.2
					c0.5,0,1.1-0.3,1.3-0.8l1.3-2.4C270.1,962.5,269.8,961.6,269.1,961.2z"/>
				<path class="st4" d="M272.5,966c-0.8-0.3-1.6,0-2,0.8l-1.1,2.4c-0.3,0.8,0,1.6,0.8,2c0.2,0.1,0.4,0.2,0.6,0.2
					c0.5,0,1.2-0.3,1.4-0.9l1.1-2.4C273.6,967.2,273.3,966.4,272.5,966z"/>
			</g>
			<g>
				<path class="st4" d="M248.5,968.8c-0.8-0.4-1.6-0.1-2,0.6l-1.3,2.4c-0.4,0.8-0.1,1.6,0.6,2c0.2,0.2,0.5,0.2,0.7,0.2
					c0.5,0,1.1-0.3,1.3-0.8l1.3-2.3C249.5,970.1,249.3,969.3,248.5,968.8z"/>
				<path class="st4" d="M248.2,960.9c-0.8-0.4-1.6-0.1-2,0.6l-1.3,2.4c-0.4,0.8-0.1,1.6,0.6,2c0.2,0.2,0.5,0.2,0.7,0.2
					c0.5,0,1.1-0.3,1.3-0.8l1.3-2.4C249.2,962.2,249,961.4,248.2,960.9z"/>
				<path class="st4" d="M242.8,965.8c-0.8-0.3-1.6,0-2,0.8l-1.1,2.4c-0.3,0.8,0,1.6,0.8,2c0.2,0.1,0.4,0.2,0.6,0.2
					c0.5,0,1.2-0.3,1.4-0.9l1.1-2.4C243.9,967,243.6,966.2,242.8,965.8z"/>
			</g>
		</g>
		<path class="st4" d="M241.6,958.9c-0.8-0.4-1.6-0.1-2,0.6l-1.3,2.4c-0.4,0.8-0.1,1.6,0.6,2c0.2,0.2,0.5,0.2,0.7,0.2
			c0.5,0,1.1-0.3,1.3-0.8l1.3-2.3C242.6,960.2,242.4,959.3,241.6,958.9z"/>
		<g>
			<g>
				<path class="st4" d="M264.7,969.8l-2.2-0.6l0.5-0.9c0.4-0.7,0.1-1.5-0.6-1.9c-0.7-0.4-1.5-0.1-1.9,0.6l-1.2,2.4
					c-0.2,0.4-0.2,0.8-0.1,1.2c0.2,0.4,0.5,0.7,0.9,0.8l1.9,0.5l-2.6,3.4c-0.5,0.6-0.4,1.5,0.3,2c0.2,0.2,0.5,0.3,0.8,0.3
					c0.5,0,0.8-0.2,1.1-0.5l3.9-5.1c0.3-0.4,0.4-0.8,0.2-1.3C265.5,970.3,265.1,969.9,264.7,969.8z"/>
			</g>
		</g>
	</g>
	<g>
		<g>
			<g>
				<path class="st4" d="M298.4,967.1l-1.8-0.5l0.4-0.8c0.3-0.6,0.1-1.3-0.5-1.6c-0.6-0.3-1.3-0.1-1.6,0.5l-1,2
					c-0.2,0.3-0.2,0.7-0.1,1s0.4,0.6,0.8,0.6l1.6,0.4l-2.2,2.9c-0.4,0.5-0.3,1.3,0.3,1.6c0.2,0.2,0.4,0.3,0.7,0.3
					c0.4,0,0.7-0.1,1-0.4l3.2-4.2c0.3-0.3,0.3-0.7,0.2-1.1C299.1,967.6,298.8,967.3,298.4,967.1z"/>
			</g>
		</g>
		<g>
			<path class="st4" d="M312,951.2c-0.5-3.7-4-6.5-8.4-6.5c-0.9,0-1.8,0.1-2.6,0.3c-1.6-1.9-4.1-3.1-6.9-3.1
				c-4.6,0.1-8.4,3.3-8.4,7.4c0,0.2,0,0.4,0,0.6c-2.5,1.3-4,3.7-4,6.2c0,4,3.8,7.3,8.5,7.3c1.5,0,3-0.3,4.3-1c1.3,0.7,2.8,1,4.3,1
				c1.2,0,2.4-0.2,3.5-0.7c1.1,0.4,2.3,0.7,3.5,0.7c4.7,0,8.5-3.3,8.5-7.3C314.3,954.4,313.5,952.6,312,951.2z"/>
			<g>
				<path class="st4" d="M307.5,965.5c-0.6-0.3-1.3-0.1-1.7,0.5l-1.1,2c-0.3,0.6-0.1,1.3,0.5,1.7c0.2,0.1,0.4,0.1,0.6,0.1
					c0.4,0,0.9-0.3,1.1-0.6l1.1-2C308.3,966.6,308.1,965.9,307.5,965.5z"/>
				<path class="st4" d="M310.3,969.6c-0.6-0.3-1.3,0-1.7,0.6l-0.9,2c-0.3,0.6,0,1.3,0.6,1.7c0.2,0.1,0.3,0.1,0.5,0.1
					c0.4,0,1-0.3,1.2-0.8l0.9-2C311.3,970.6,311,969.9,310.3,969.6z"/>
			</g>
			<g>
				<path class="st4" d="M290.3,971.9c-0.6-0.3-1.3-0.1-1.7,0.5l-1.1,2c-0.3,0.6-0.1,1.3,0.5,1.7c0.2,0.1,0.4,0.1,0.6,0.1
					c0.4,0,0.9-0.3,1.1-0.6l1.1-1.9C291.2,973,291,972.3,290.3,971.9z"/>
				<path class="st4" d="M290.1,965.3c-0.6-0.3-1.3-0.1-1.7,0.5l-1.1,2c-0.3,0.6-0.1,1.3,0.5,1.7c0.2,0.1,0.4,0.1,0.6,0.1
					c0.4,0,0.9-0.3,1.1-0.6l1.1-2C290.9,966.4,290.7,965.7,290.1,965.3z"/>
				<path class="st4" d="M285.5,969.4c-0.6-0.3-1.3,0-1.7,0.6l-0.9,2c-0.3,0.6,0,1.3,0.6,1.7c0.2,0.1,0.3,0.1,0.5,0.1
					c0.4,0,1-0.3,1.2-0.8l0.9-2C286.5,970.4,286.2,969.7,285.5,969.4z"/>
			</g>
		</g>
		<path class="st4" d="M284.6,963.6c-0.6-0.3-1.3-0.1-1.7,0.5l-1.1,2c-0.3,0.6-0.1,1.3,0.5,1.7c0.2,0.1,0.4,0.1,0.6,0.1
			c0.4,0,0.9-0.3,1.1-0.6l1.1-1.9C285.4,964.7,285.2,964,284.6,963.6z"/>
		<g>
			<g>
				<path class="st4" d="M303.8,972.7l-1.8-0.5l0.4-0.8c0.3-0.6,0.1-1.3-0.5-1.6c-0.6-0.3-1.3-0.1-1.6,0.5l-1,2
					c-0.2,0.3-0.2,0.7-0.1,1s0.4,0.6,0.8,0.6l1.6,0.4l-2.2,2.9c-0.4,0.5-0.3,1.3,0.3,1.6c0.2,0.2,0.4,0.3,0.7,0.3
					c0.4,0,0.7-0.1,1-0.4l3.2-4.2c0.3-0.3,0.3-0.7,0.2-1.1C304.5,973.1,304.2,972.8,303.8,972.7z"/>
			</g>
		</g>
	</g>
</g>
<g id="WHtext">
	<rect x="18.6" y="787.7" class="st31" width="331.6" height="105.2"/>
	<rect x="28" y="799.1" class="st1" width="318.8" height="86.7"/>
	<text transform="matrix(1 0 0 1 28.0319 812.7087)"><tspan x="0" y="0" class="st18 st28 st29">The lowest layer of the atmosphere, </tspan><tspan x="0" y="21.6" class="st18 st28 st29">roughly the lowest 6 miles of the atmo</tspan><tspan x="302.4" y="21.6" class="st18 st28 st29">-</tspan><tspan x="0" y="43.2" class="st18 st28 st29">sphere, contains almost all the weather </tspan><tspan x="0" y="64.8" class="st18 st28 st29">in the atmosphere.</tspan></text>
</g>
<g id="topbackgr">
	<path class="st23" d="M695.8,343.9L695.8,343.9c-0.4,0-0.8,0.3-0.8,0.8v654.6c0,0.4,0.3,0.8,0.8,0.8l0,0c0.4,0,0.8-0.3,0.8-0.8
		V344.7C696.5,344.3,696.2,343.9,695.8,343.9z"/>
</g>
</svg>
